<svg width="27" height="27" viewBox="0 0 27 27" fill="none" xmlns="http://www.w3.org/2000/svg">
<g clip-path="url(#clip0_973_2759)">
<path d="M20.3604 25.1314C18.9506 26.513 17.4114 26.2949 15.9297 25.6404C14.3617 24.9714 12.9232 24.9423 11.2689 25.6404C9.19743 26.5421 8.10415 26.2803 6.86702 25.1314C-0.152969 17.8159 0.882768 6.67552 8.85218 6.2683C10.7942 6.37011 12.1464 7.34453 13.2828 7.43179C14.9803 7.08274 16.6058 6.07923 18.4184 6.21013C20.5905 6.38465 22.2304 7.25727 23.3093 8.82798C18.8211 11.5476 19.8856 17.5251 23.9998 19.1976C23.1799 21.3791 22.1154 23.5461 20.346 25.1459L20.3604 25.1314ZM13.139 6.18104C12.9232 2.93781 15.5269 0.261785 18.5191 0C18.9362 3.75225 15.1529 6.54463 13.139 6.18104Z" fill="white"/>
</g>
<defs>
<clipPath id="clip0_973_2759">
<rect width="26.1818" height="26.1818" fill="white"/>
</clipPath>
</defs>
</svg>
